<?xml version="1.0" encoding="utf-8"?>
<!-- Generator: Adobe Illustrator 15.0.0, SVG Export Plug-In . SVG Version: 6.00 Build 0)  -->
<!DOCTYPE svg PUBLIC "-//W3C//DTD SVG 1.1//EN" "http://www.w3.org/Graphics/SVG/1.1/DTD/svg11.dtd">
<svg version="1.1" id="Layer_1" xmlns:svg="http://www.w3.org/2000/svg"
	 xmlns="http://www.w3.org/2000/svg" xmlns:xlink="http://www.w3.org/1999/xlink" x="0px" y="0px" width="63.68px"
	 height="67.216px" viewBox="0 -1.433 63.68 67.216" enable-background="new 0 -1.433 63.68 67.216" xml:space="preserve">
<g>
	<g id="breadboard">
		<g id="_x30_.2.0">
			<g id="_x30_.2.0.0">
				<g id="_x30_.2.0.0.0">
					<path id="_x30_.2.0.0.0.0" d="M0,54.139v10.085h10.616l0,0h10.615l0,0h21.762l0,0h10.616l0,0h10.085V54.139l0,0l0.001-10.615
						h0.086l-0.087-21.763l0,0V11.147l0,0V0.531H53.609l0,0H42.993l0,0H21.231l0,0H10.616l0,0H0v10.615l0,0v10.615l0,0v21.763l0,0
						V54.139L0,54.139z"/>
				</g>
			</g>
			<g id="_x30_.2.0.1">
				<g id="_x30_.2.0.1.0">
					<ellipse id="_x30_.2.0.1.0.0" fill="#FFFFFF" cx="60.269" cy="60.584" rx="2.655" ry="2.649"/>
					<ellipse id="_x30_.2.0.1.0.1" fill="#FFFFFF" cx="52.161" cy="60.584" rx="2.654" ry="2.649"/>
					<ellipse id="_x30_.2.0.1.0.2" fill="#FFFFFF" cx="44.053" cy="60.584" rx="2.655" ry="2.649"/>
					<ellipse id="_x30_.2.0.1.0.3" fill="#FFFFFF" cx="35.945" cy="60.584" rx="2.654" ry="2.649"/>
					<ellipse id="_x30_.2.0.1.0.4" fill="#FFFFFF" cx="27.836" cy="60.584" rx="2.655" ry="2.649"/>
					<ellipse id="_x30_.2.0.1.0.5" fill="#FFFFFF" cx="19.729" cy="60.584" rx="2.654" ry="2.649"/>
					<ellipse id="_x30_.2.0.1.0.6" fill="#FFFFFF" cx="11.62" cy="60.584" rx="2.654" ry="2.649"/>
					<ellipse id="_x30_.2.0.1.0.7" fill="#FFFFFF" cx="3.512" cy="60.584" rx="2.649" ry="2.649"/>
				</g>
				<g id="_x30_.2.0.1.1">
					<ellipse id="_x30_.2.0.1.1.0" fill="#FFFFFF" cx="60.269" cy="52.512" rx="2.655" ry="2.649"/>
					<ellipse id="_x30_.2.0.1.1.1" fill="#FFFFFF" cx="52.161" cy="52.512" rx="2.654" ry="2.649"/>
					<ellipse id="_x30_.2.0.1.1.2" fill="#FFFFFF" cx="44.053" cy="52.512" rx="2.655" ry="2.649"/>
					<ellipse id="_x30_.2.0.1.1.3" fill="#FFFFFF" cx="35.945" cy="52.512" rx="2.654" ry="2.649"/>
					<ellipse id="_x30_.2.0.1.1.4" fill="#FFFFFF" cx="27.836" cy="52.512" rx="2.655" ry="2.649"/>
					<ellipse id="_x30_.2.0.1.1.5" fill="#FFFFFF" cx="19.729" cy="52.512" rx="2.654" ry="2.649"/>
					<ellipse id="_x30_.2.0.1.1.6" fill="#FFFFFF" cx="11.62" cy="52.512" rx="2.654" ry="2.649"/>
					<ellipse id="_x30_.2.0.1.1.7" fill="#FFFFFF" cx="3.512" cy="52.512" rx="2.654" ry="2.649"/>
				</g>
				<g id="_x30_.2.0.1.2">
					<ellipse id="_x30_.2.0.1.2.0" fill="#FFFFFF" cx="60.269" cy="44.44" rx="2.655" ry="2.649"/>
					<ellipse id="_x30_.2.0.1.2.1" fill="#FFFFFF" cx="52.161" cy="44.44" rx="2.654" ry="2.649"/>
					<ellipse id="_x30_.2.0.1.2.2" fill="#FFFFFF" cx="44.053" cy="44.44" rx="2.655" ry="2.649"/>
					<ellipse id="_x30_.2.0.1.2.3" fill="#FFFFFF" cx="35.945" cy="44.44" rx="2.654" ry="2.649"/>
					<ellipse id="_x30_.2.0.1.2.4" fill="#FFFFFF" cx="27.836" cy="44.44" rx="2.655" ry="2.649"/>
					<ellipse id="_x30_.2.0.1.2.5" fill="#FFFFFF" cx="19.729" cy="44.44" rx="2.654" ry="2.649"/>
					<ellipse id="_x30_.2.0.1.2.6" fill="#FFFFFF" cx="11.62" cy="44.44" rx="2.654" ry="2.649"/>
					<ellipse id="_x30_.2.0.1.2.7" fill="#FFFFFF" cx="3.512" cy="44.44" rx="2.654" ry="2.649"/>
				</g>
				<g id="_x30_.2.0.1.3">
					<ellipse id="_x30_.2.0.1.3.0" fill="#FFFFFF" cx="60.269" cy="36.37" rx="2.655" ry="2.649"/>
					<ellipse id="_x30_.2.0.1.3.1" fill="#FFFFFF" cx="52.161" cy="36.37" rx="2.654" ry="2.649"/>
					<ellipse id="_x30_.2.0.1.3.2" fill="#FFFFFF" cx="44.053" cy="36.37" rx="2.655" ry="2.649"/>
					<ellipse id="_x30_.2.0.1.3.3" fill="#FFFFFF" cx="35.945" cy="36.37" rx="2.654" ry="2.649"/>
					<ellipse id="_x30_.2.0.1.3.4" fill="#FFFFFF" cx="27.836" cy="36.37" rx="2.655" ry="2.649"/>
					<ellipse id="_x30_.2.0.1.3.5" fill="#FFFFFF" cx="19.729" cy="36.37" rx="2.654" ry="2.649"/>
					<ellipse id="_x30_.2.0.1.3.6" fill="#FFFFFF" cx="11.62" cy="36.37" rx="2.654" ry="2.649"/>
					<ellipse id="_x30_.2.0.1.3.7" fill="#FFFFFF" cx="3.512" cy="36.37" rx="2.654" ry="2.649"/>
				</g>
				<g id="_x30_.2.0.1.4">
					<ellipse id="_x30_.2.0.1.4.0" fill="#FFFFFF" cx="60.269" cy="28.299" rx="2.655" ry="2.649"/>
					<ellipse id="_x30_.2.0.1.4.1" fill="#FFFFFF" cx="52.161" cy="28.299" rx="2.654" ry="2.649"/>
					<ellipse id="_x30_.2.0.1.4.2" fill="#FFFFFF" cx="44.053" cy="28.299" rx="2.655" ry="2.649"/>
					<ellipse id="_x30_.2.0.1.4.3" fill="#FFFFFF" cx="35.945" cy="28.299" rx="2.654" ry="2.649"/>
					<ellipse id="_x30_.2.0.1.4.4" fill="#FFFFFF" cx="27.836" cy="28.299" rx="2.655" ry="2.649"/>
					<ellipse id="_x30_.2.0.1.4.5" fill="#FFFFFF" cx="19.729" cy="28.299" rx="2.654" ry="2.649"/>
					<ellipse id="_x30_.2.0.1.4.6" fill="#FFFFFF" cx="11.62" cy="28.299" rx="2.654" ry="2.649"/>
					<ellipse id="_x30_.2.0.1.4.7" fill="#FFFFFF" cx="3.512" cy="28.299" rx="2.654" ry="2.649"/>
				</g>
				<g id="_x30_.2.0.1.5">
					<ellipse id="_x30_.2.0.1.5.0" fill="#FFFFFF" cx="60.269" cy="20.228" rx="2.655" ry="2.649"/>
					<ellipse id="_x30_.2.0.1.5.1" fill="#FFFFFF" cx="52.161" cy="20.228" rx="2.654" ry="2.649"/>
					<ellipse id="_x30_.2.0.1.5.2" fill="#FFFFFF" cx="44.053" cy="20.228" rx="2.655" ry="2.649"/>
					<ellipse id="_x30_.2.0.1.5.3" fill="#FFFFFF" cx="35.945" cy="20.228" rx="2.654" ry="2.649"/>
					<ellipse id="_x30_.2.0.1.5.4" fill="#FFFFFF" cx="27.836" cy="20.228" rx="2.655" ry="2.649"/>
					<ellipse id="_x30_.2.0.1.5.5" fill="#FFFFFF" cx="19.729" cy="20.228" rx="2.654" ry="2.649"/>
					<ellipse id="_x30_.2.0.1.5.6" fill="#FFFFFF" cx="11.62" cy="20.228" rx="2.654" ry="2.649"/>
					<ellipse id="_x30_.2.0.1.5.7" fill="#FFFFFF" cx="3.512" cy="20.228" rx="2.654" ry="2.649"/>
				</g>
				<g id="_x30_.2.0.1.6">
					<ellipse id="_x30_.2.0.1.6.0" fill="#FFFFFF" cx="60.269" cy="12.156" rx="2.655" ry="2.649"/>
					<ellipse id="_x30_.2.0.1.6.1" fill="#FFFFFF" cx="52.161" cy="12.156" rx="2.654" ry="2.649"/>
					<ellipse id="_x30_.2.0.1.6.2" fill="#FFFFFF" cx="44.053" cy="12.156" rx="2.655" ry="2.649"/>
					<ellipse id="_x30_.2.0.1.6.3" fill="#FFFFFF" cx="35.945" cy="12.156" rx="2.654" ry="2.649"/>
					<ellipse id="_x30_.2.0.1.6.4" fill="#FFFFFF" cx="27.836" cy="12.156" rx="2.655" ry="2.649"/>
					<ellipse id="_x30_.2.0.1.6.5" fill="#FFFFFF" cx="19.729" cy="12.156" rx="2.654" ry="2.649"/>
					<ellipse id="_x30_.2.0.1.6.6" fill="#FFFFFF" cx="11.62" cy="12.156" rx="2.654" ry="2.649"/>
					<ellipse id="_x30_.2.0.1.6.7" fill="#FFFFFF" cx="3.512" cy="12.156" rx="2.649" ry="2.649"/>
				</g>
				<g id="_x30_.2.0.1.7">
					<ellipse id="_x30_.2.0.1.7.0" fill="#FFFFFF" cx="60.269" cy="4.085" rx="2.655" ry="2.648"/>
					<ellipse id="_x30_.2.0.1.7.1" fill="#FFFFFF" cx="52.161" cy="4.085" rx="2.654" ry="2.648"/>
					<ellipse id="_x30_.2.0.1.7.2" fill="#FFFFFF" cx="44.053" cy="4.085" rx="2.654" ry="2.648"/>
					<ellipse id="_x30_.2.0.1.7.3" fill="#FFFFFF" cx="35.945" cy="4.085" rx="2.654" ry="2.648"/>
					<ellipse id="_x30_.2.0.1.7.4" fill="#FFFFFF" cx="27.836" cy="4.085" rx="2.654" ry="2.648"/>
					<ellipse id="_x30_.2.0.1.7.5" fill="#FFFFFF" cx="19.729" cy="4.085" rx="2.654" ry="2.648"/>
					<ellipse id="_x30_.2.0.1.7.6" fill="#FFFFFF" cx="11.62" cy="4.085" rx="2.654" ry="2.648"/>
					<ellipse id="_x30_.2.0.1.7.7" fill="#FFFFFF" cx="3.512" cy="4.085" rx="2.654" ry="2.648"/>
				</g>
			</g>
		</g>
	</g>
</g>
<rect x="5.513" y="-1.433" width="2.537" height="2.537"/>
<rect x="12.495" y="-1.433" width="2.537" height="2.537"/>
<rect x="19.512" y="-1.433" width="2.537" height="2.537"/>
<rect x="26.492" y="-1.433" width="2.537" height="2.537"/>
<rect x="33.612" y="-1.588" width="2.537" height="2.537"/>
<rect x="40.476" y="-1.433" width="2.537" height="2.537"/>
<rect x="47.552" y="-1.433" width="2.537" height="2.537"/>
<rect x="54.882" y="-1.433" width="2.537" height="2.537"/>
<rect x="5.586" y="63.246" width="2.538" height="2.537"/>
<rect x="12.567" y="63.246" width="2.537" height="2.537"/>
<rect x="19.585" y="63.246" width="2.537" height="2.537"/>
<rect x="26.507" y="63.246" width="2.537" height="2.537"/>
<rect x="33.568" y="63.307" width="2.537" height="2.537"/>
<rect x="40.558" y="63.246" width="2.537" height="2.537"/>
<rect x="47.585" y="63.307" width="2.537" height="2.537"/>
<rect x="54.925" y="63.307" width="2.537" height="2.537"/>
</svg>
